<svg width="15" height="13" viewBox="0 0 15 13" fill="none" xmlns="http://www.w3.org/2000/svg">
<path d="M4.16842 5.51223V1.54532L5.51053 2.89949C5.58947 2.97915 5.7 3.02694 5.81053 3.02694C5.92105 3.02694 6.03158 2.97915 6.11053 2.89949C6.28421 2.72425 6.28421 2.45341 6.11053 2.27817L4.04211 0.191157C3.86842 0.0159116 3.6 0.0159116 3.42632 0.191157L1.34211 2.27817C1.16842 2.45341 1.16842 2.72425 1.34211 2.89949C1.51579 3.07474 1.78421 3.07474 1.95789 2.89949L3.3 1.54532V5.4963C1.43684 5.71934 0 7.31248 0 9.24018C0 11.3113 1.67368 13 3.72632 13C5.77895 13 7.45263 11.3113 7.45263 9.24018C7.45263 7.31248 6.01579 5.71934 4.16842 5.51223ZM3.72632 12.1397C2.14737 12.1397 0.868421 10.8333 0.868421 9.24018C0.868421 7.64704 2.14737 6.3566 3.72632 6.3566C5.30526 6.3566 6.58421 7.64704 6.58421 9.24018C6.58421 10.8333 5.30526 12.1397 3.72632 12.1397Z" fill="#555252"/>
<path d="M14.9999 3.7598C14.9999 1.68873 13.3262 0 11.2736 0C9.22097 0 7.54729 1.68873 7.54729 3.7598C7.54729 5.6875 8.98413 7.28064 10.8473 7.50368V10.1164H9.36308C9.12623 10.1164 8.93676 10.3076 8.93676 10.5466C8.93676 10.7855 9.12623 10.9767 9.36308 10.9767H10.8473V12.5221C10.8473 12.761 11.0368 12.9522 11.2736 12.9522C11.5104 12.9522 11.6999 12.761 11.6999 12.5221V10.9767H13.1841C13.421 10.9767 13.6104 10.7855 13.6104 10.5466C13.6104 10.3076 13.421 10.1164 13.1841 10.1164H11.6999V7.48774C13.5631 7.28064 14.9999 5.6875 14.9999 3.7598ZM11.2736 6.64338C9.69466 6.64338 8.41571 5.35294 8.41571 3.7598C8.41571 2.16667 9.69466 0.876225 11.2736 0.876225C12.8526 0.876225 14.1315 2.16667 14.1315 3.7598C14.1315 5.35294 12.8526 6.64338 11.2736 6.64338Z" fill="#555252"/>
</svg>
