<svg width="13" height="14" viewBox="0 0 13 14" fill="none" xmlns="http://www.w3.org/2000/svg">
<path d="M12.2707 10.8216L11.4991 11.5744V1.56207L12.2707 2.31487C12.4401 2.48426 12.7036 2.48426 12.873 2.31487C13.0423 2.14549 13.0423 1.88201 12.873 1.71263L11.4991 0.376402L11.3862 0.282302C11.2168 0.131741 10.9721 0.112921 10.8028 0.282302L10.6522 0.432863L9.2595 1.73145C9.09012 1.88201 9.0713 2.16431 9.24068 2.33369C9.31596 2.4278 9.42888 2.46544 9.5418 2.46544C9.6359 2.46544 9.74882 2.4278 9.8241 2.35252L10.6334 1.59971V11.5932L9.8241 10.8404C9.74882 10.7651 9.6359 10.7275 9.5418 10.7275C9.42888 10.7275 9.31596 10.7651 9.24068 10.8592C9.09012 11.0286 9.09012 11.2921 9.2595 11.4615L10.6522 12.76L10.8028 12.9106C10.9721 13.0612 11.2168 13.0612 11.3862 12.9106L11.4991 12.8165L12.8541 11.4803C13.0235 11.3109 13.0235 11.0474 12.8541 10.878C12.7036 10.671 12.4401 10.6522 12.2707 10.8216ZM4.49801 0H1.54325C0.696345 0 0 0.696345 0 1.54325V11.4238C0 12.2707 0.696345 12.9671 1.54325 12.9671H4.47919C5.32609 12.9671 6.02244 12.2707 6.02244 11.4238V1.54325C6.04126 0.696345 5.34491 0 4.49801 0ZM5.19435 2.29606H3.4629C3.23706 2.29606 3.04886 2.48426 3.04886 2.7101C3.04886 2.93594 3.23706 3.12414 3.4629 3.12414H5.19435V4.15925H3.4629C3.23706 4.15925 3.04886 4.34745 3.04886 4.57329C3.04886 4.79913 3.23706 4.98733 3.4629 4.98733H5.19435V6.0789H3.4629C3.23706 6.0789 3.04886 6.2671 3.04886 6.49294C3.04886 6.71878 3.23706 6.90698 3.4629 6.90698H5.19435V7.94209H3.4629C3.23706 7.94209 3.04886 8.13029 3.04886 8.35613C3.04886 8.58198 3.23706 8.77018 3.4629 8.77018H5.19435V9.80528H3.4629C3.23706 9.80528 3.04886 9.99349 3.04886 10.2193C3.04886 10.4452 3.23706 10.6522 3.4629 10.6522H5.19435V11.3674C5.19435 11.7626 4.87441 12.0637 4.49801 12.0637H1.54325C1.14803 12.0637 0.846905 11.7438 0.846905 11.3674V1.54325C0.846905 1.14803 1.16685 0.846905 1.54325 0.846905H4.47919C4.87441 0.846905 5.17553 1.16685 5.17553 1.54325V2.29606H5.19435Z" fill="#555252"/>
</svg>
