<?xml version="1.0" encoding="UTF-8"?>
<svg id="a" data-name="Camada 1" xmlns="http://www.w3.org/2000/svg" viewBox="0 0 335.47 333.55">
  <path d="M195.64,233.84c6.38-1.23,12.44-1.77,18.07-3.63,7.72-2.56,15.42-5.54,22.55-9.39,10.26-5.54,17.38-14.28,21.71-25.19,6.45-16.25,8.42-33,5.39-50.24-1.68-9.52-5.96-17.91-12.22-25.24-1.43-1.67-1.85-2.99-1.11-5.2,4.08-12.17,2.53-24.13-1.98-35.85-.37-.96-2.03-2.11-2.99-2.03-3.87,.33-8.02,.38-11.48,1.88-8.63,3.77-16.91,8.34-25.4,12.43-1.49,.72-3.51,1.21-5.04,.84-23.67-5.84-47.28-5.81-70.94,.02-1.43,.35-3.44,0-4.68-.8-9.58-6.15-19.71-11.07-30.77-13.86-7.83-1.98-9.14-1.13-11.27,6.38-3,10.55-3.51,21.1,0,31.69,.35,1.05,.1,2.82-.6,3.63-12.07,13.93-15.54,30.34-13.8,48.14,.64,6.51,1.71,13.05,3.33,19.39,5.63,22.02,20.39,35.34,41.57,41.92,6.46,2.01,13.26,2.89,19.91,4.27,1.09,.23,2.19,.4,3.79,.69-5.35,5.47-7.9,11.78-9.26,18.7-.19,.96-1.4,2.11-2.39,2.46-17.79,6.15-31.49,3.84-41.72-13.22-5.15-8.59-12.44-14.6-22.76-15.71-2.37-.26-4.9,1.04-7.36,1.62,1.38,2.12,2.28,5.04,4.24,6.21,9.61,5.74,14.61,14.7,18.7,24.58,4.71,11.4,14.12,16.51,25.78,17.44,8.1,.65,16.29,.13,24.79,.13,.04,.48,.18,1.47,.19,2.47,.1,9.7,.22,19.39,.26,29.09,.03,7.82-2.73,10.81-10.46,10.86-16.28,.12-32.57,.36-48.84-.02-30.08-.7-53.9-24.49-55.06-54.53-.04-1.15-.07-2.31-.07-3.46,0-62.58,.04-125.15-.02-187.73-.02-22.89,10.34-39.7,29.68-51.25,8.21-4.9,17.31-6.85,26.84-6.85,63.62,0,127.25-.08,190.87,.04,31.09,.06,55.6,24.06,56.53,55.15,.31,10.38,.1,20.78,.1,31.17,0,52.99-.04,105.99,.02,158.98,.03,24.35-11.17,41.79-32.33,53.1-7.45,3.98-15.63,5.46-24.07,5.46-15.24,0-30.48,0-45.73,0-1.04,0-2.08-.05-3.11-.12-6.62-.46-8.85-2.66-8.9-9.34-.1-14.89,0-29.79-.08-44.68-.02-3.92-.18-7.87-.73-11.74-.99-6.99-3.59-13.33-9.15-18.66Z"/>
  <path d="M101.34,257.3c1.52,1.61,2.55,2.71,3.58,3.81-.75,.68-1.78,2.09-2.19,1.92-1.51-.6-2.82-1.72-4.2-2.64,.74-.81,1.47-1.62,2.8-3.09Z"/>
  <path d="M113.87,265.76c-1.27-1.31-2.1-2.16-2.92-3.01,1.19-.74,2.32-1.93,3.57-2.08,.82-.1,1.83,1.28,2.75,2-.96,.87-1.93,1.74-3.41,3.08Z"/>
  <path d="M95.3,255.39c-1.71,.93-3.01,2.02-3.38,1.77-1.38-.94-2.46-2.33-3.65-3.55,.81-.64,1.98-2,2.36-1.81,1.48,.76,2.71,2.01,4.67,3.59Z"/>
  <path d="M125.96,257.73c1.35,1.55,2.13,2.45,2.91,3.35-1.23,.8-2.39,1.93-3.74,2.26-.64,.16-1.66-1.21-2.5-1.89,.94-1.05,1.87-2.1,3.32-3.72Z"/>
  <path d="M86.91,246.62c-1.25,.95-2.5,2.04-2.59,1.95-1.14-1.14-2.17-2.41-3.04-3.76-.06-.09,1.76-1.75,1.97-1.6,1.21,.83,2.2,1.98,3.66,3.41Z"/>
  <path d="M80.75,237.98c-1.27,.94-2.25,1.94-2.48,1.79-1.05-.7-1.97-1.66-2.73-2.67-.1-.13,1.25-1.74,1.45-1.65,1.14,.53,2.13,1.38,3.76,2.53Z"/>
</svg>