<?xml version="1.0" encoding="UTF-8"?>
<svg id="a" data-name="Camada 1" xmlns="http://www.w3.org/2000/svg" viewBox="0 0 335.47 333.55">
  <path d="M317.14,130.05c-2.95-11.77-6.94-23.15-12.82-33.83-1.89-3.44-3.7-6.95-5.73-10.3-6.19-10.22-13.61-19.52-22.11-27.92-25.19-24.88-55.3-39.7-90.52-43.95-15.08-1.82-30.12-1.41-45.06,1.24-18.44,3.27-35.73,9.69-51.8,19.33-24.68,14.81-43.8,34.97-57.41,60.3-6.67,12.42-11.42,25.61-14.36,39.42-1.11,5.22-2.12,10.47-2.45,15.82-.11,.73-.25,1.46-.31,2.2-1.32,14.43-.66,28.78,2.02,43.02,1.93,10.28,4.86,20.27,8.84,29.94,3.96,9.64,8.98,18.72,14.68,27.43,.71,1.08,.87,2.02,.52,3.3-4.89,17.7-9.72,35.41-14.56,53.12q-.52,1.91,1.43,1.4c17.32-4.53,34.67-8.96,51.94-13.68,3.2-.87,5.57-.46,8.34,1.23,21.45,13.12,44.81,20.44,69.88,22.14,14.51,.99,28.88-.16,43.11-3.26,54.53-11.85,99.15-53.62,114.69-107.41,.19-.67,.31-1.32,.23-2.01,.75-1.24,1.01-2.65,1.37-4.02,2.46-9.51,3.84-19.19,4.3-28.98,.71-15.03-.56-29.91-4.22-44.54Zm-55.47,85.91c-.34,6.02-1.48,11.85-3.68,17.44-1.69,4.31-4.9,7.51-8.43,10.34-6.51,5.21-13.57,9.44-21.9,10.93-8.58,1.54-17.12,.97-25.53-1.31-17.6-4.77-34.79-10.6-50.45-20.22-5.39-3.31-10.51-7-15.44-10.96-16.47-13.23-30.09-29.03-42.06-46.36-4.82-6.98-9.68-13.92-13.24-21.66-.62-1.34-1.25-2.67-1.87-4.01h0c-1.54-4.45-3.19-8.86-4.16-13.5-1.9-9.1-1.52-18.08,1-27.01,1.96-6.97,5.42-13.06,10.11-18.55,1.52-1.78,3.16-3.4,4.81-5.02,3.31-3.25,7.36-4.89,12.02-4.88,2.96,0,5.92,.17,8.88,.18,3.37,.01,5.86,1.53,7.72,4.26,1.93,2.83,3.05,6.05,4.37,9.17,4.11,9.75,8.07,19.56,12.17,29.32,1.18,2.81,1.17,5.41-.11,8.21-2.7,5.93-7.11,10.55-11.39,15.25-3.77,4.14-4.1,5.84-1.17,10.7,11.9,19.74,27.42,35.81,47.8,46.91,5.15,2.81,10.54,5.11,15.9,7.46,3.63,1.59,5.93,1.04,8.54-1.95,4.97-5.71,9.89-11.47,14.3-17.64,2.88-4.02,4.81-4.74,9.47-3.07,6.22,2.22,12.04,5.36,17.99,8.2,6.66,3.17,13.27,6.46,19.9,9.69,3.64,1.5,4.69,4.33,4.47,8.07Z" fill="#32ba46" stroke="#fff" stroke-miterlimit="10" stroke-width="20"/>
  <path d="M255.43,215.76c3.64,1.5,4.69,4.33,4.47,8.07-.34,6.02-1.48,11.85-3.68,17.44-1.69,4.31-4.9,7.51-8.43,10.34-6.51,5.21-13.57,9.44-21.9,10.93-8.58,1.54-17.12,.97-25.53-1.31-17.6-4.77-34.79-10.6-50.45-20.22-5.39-3.31-10.51-7-15.44-10.96-16.47-13.23-30.09-29.03-42.06-46.36-4.82-6.98-9.68-13.92-13.24-21.66-.62-1.34-1.25-2.67-1.87-4.01-1.55-4.45-3.19-8.86-4.16-13.5-1.9-9.1-1.52-18.08,1-27.01,1.96-6.97,5.42-13.06,10.11-18.55,1.52-1.78,3.16-3.4,4.81-5.02,3.31-3.25,7.36-4.89,12.02-4.88,2.96,0,5.92,.17,8.88,.18,3.37,.01,5.86,1.53,7.72,4.26,1.93,2.83,3.05,6.05,4.37,9.17,4.11,9.75,8.07,19.56,12.17,29.32,1.18,2.81,1.17,5.41-.11,8.21-2.7,5.93-7.11,10.55-11.39,15.25-3.77,4.14-4.1,5.84-1.17,10.7,11.9,19.74,27.42,35.81,47.8,46.91,5.15,2.81,10.54,5.11,15.9,7.46,3.63,1.59,5.93,1.04,8.54-1.95,4.97-5.71,9.89-11.47,14.3-17.64,2.88-4.02,4.81-4.74,9.47-3.07,6.22,2.22,12.04,5.36,17.99,8.2,6.66,3.17,13.27,6.46,19.9,9.69Z" fill="#fefefe"/>
</svg>